<?xml version="1.0" encoding="UTF-8" standalone="no"?>
<!DOCTYPE svg PUBLIC "-//W3C//DTD SVG 1.1//EN"
 "http://www.w3.org/Graphics/SVG/1.1/DTD/svg11.dtd">
<!-- Generated by graphviz version 8.0.5 (20230430.1635)
 -->
<!-- Title: snakemake_dag Pages: 1 -->
<svg width="69pt" height="116pt"
 viewBox="0.00 0.00 69.00 116.00" xmlns="http://www.w3.org/2000/svg" xmlns:xlink="http://www.w3.org/1999/xlink">
<g id="graph0" class="graph" transform="scale(1 1) rotate(0) translate(4 112)">
<title>snakemake_dag</title>
<polygon fill="white" stroke="none" points="-4,4 -4,-112 65,-112 65,4 -4,4"/>
<!-- 0 -->
<g id="node1" class="node">
<title>0</title>
<path fill="none" stroke="#d8bc56" stroke-width="2" d="M49,-108C49,-108 12,-108 12,-108 6,-108 0,-102 0,-96 0,-96 0,-84 0,-84 0,-78 6,-72 12,-72 12,-72 49,-72 49,-72 55,-72 61,-78 61,-84 61,-84 61,-96 61,-96 61,-102 55,-108 49,-108"/>
<text text-anchor="middle" x="30.5" y="-86.12" font-family="sans" font-size="10.00">get_seeds</text>
</g>
<!-- 1 -->
<g id="node2" class="node">
<title>1</title>
<path fill="none" stroke="#88d856" stroke-width="2" d="M45.5,-36C45.5,-36 15.5,-36 15.5,-36 9.5,-36 3.5,-30 3.5,-24 3.5,-24 3.5,-12 3.5,-12 3.5,-6 9.5,0 15.5,0 15.5,0 45.5,0 45.5,0 51.5,0 57.5,-6 57.5,-12 57.5,-12 57.5,-24 57.5,-24 57.5,-30 51.5,-36 45.5,-36"/>
<text text-anchor="middle" x="30.5" y="-14.12" font-family="sans" font-size="10.00">target</text>
</g>
<!-- 0&#45;&gt;1 -->
<g id="edge1" class="edge">
<title>0&#45;&gt;1</title>
<path fill="none" stroke="grey" stroke-width="2" d="M30.5,-71.34C30.5,-64.75 30.5,-57.08 30.5,-49.67"/>
<polygon fill="grey" stroke="grey" stroke-width="2" points="34,-49.9 30.5,-39.9 27,-49.9 34,-49.9"/>
</g>
</g>
</svg>
